PathFileType	4	(X/Y/Z)	C249e_D251_DD_1_S001_6.trc
DataRate	CameraRate	NumFrames	NumMarkers	Units	OrigDataRate	OrigDataStartFrame	OrigNumFrames
50.0	50.0	4	54	mm	50.0	69	274
Frame#	Time		Q_WaistRFront		Q_WaistLFront		Q_WaistL		Q_WaistR		Q_WaistBack		Q_LThighFrontLow		Q_RThighFrontLow		Q_RKneeIn		Q_RKneeOut		Q_RShinFrontHigh		Q_LKneeIn		Q_LKneeOut		Q_LShinFrontHigh		Q_RForefoot5		Q_RForefoot2		Q_RHeelBack		Q_RAnkleOut		Q_LForefoot5		Q_LForefoot2		Q_LHeelBack		Q_LAnkleOut		Q_SpineThoracic2		Q_Chest		Q_SpineThoracic12		Q_HeadL		Q_HeadR		Q_HeadFront		Q_LShoulderTop		Q_LArm		Q_LElbowOut		Q_LElbowIn		Q_LWristOut		Q_LWristIn		Q_LHand2		Q_RShoulderTop		Q_RArm		Q_RElbowOut		Q_RElbowIn		Q_RWristOut		Q_RWristIn		Q_RHand2		RHipAngles		LHipAngles		RKneeAngles		LKneeAngles		RAnkleAngles		LAnkleAngles		RShoulderAngles		LShoulderAngles		RElbowAngles		LElbowAngles		RWristAngles		LWristAngles		Neck
			X1	Y1	Z1	X2	Y2	Z2	X3	Y3	Z3	X4	Y4	Z4	X5	Y5	Z5	X6	Y6	Z6	X7	Y7	Z7	X8	Y8	Z8	X9	Y9	Z9	X10	Y10	Z10	X11	Y11	Z11	X12	Y12	Z12	X13	Y13	Z13	X14	Y14	Z14	X15	Y15	Z15	X16	Y16	Z16	X17	Y17	Z17	X18	Y18	Z18	X19	Y19	Z19	X20	Y20	Z20	X21	Y21	Z21	X22	Y22	Z22	X23	Y23	Z23	X24	Y24	Z24	X25	Y25	Z25	X26	Y26	Z26	X27	Y27	Z27	X28	Y28	Z28	X29	Y29	Z29	X30	Y30	Z30	X31	Y31	Z31	X32	Y32	Z32	X33	Y33	Z33	X34	Y34	Z34	X35	Y35	Z35	X36	Y36	Z36	X37	Y37	Z37	X38	Y38	Z38	X39	Y39	Z39	X40	Y40	Z40	X41	Y41	Z41	X42	Y42	Z42	X43	Y43	Z43	X44	Y44	Z44	X45	Y45	Z45	X46	Y46	Z46	X47	Y47	Z47	X48	Y48	Z48	X49	Y49	Z49	X50	Y50	Z50	X51	Y51	Z51	X52	Y52	Z52	X53	Y53	Z53	X54	Y54	Z54

69	1.36000	136.28069	809.19427	168.25069	-120.18461	811.98242	170.47548	-119.42444	831.01324	234.25569	137.04085	828.22510	232.03090	8.80820	829.61914	233.14330	-126.67567	465.95209	155.79428	150.10010	464.01584	158.16550	108.01550	401.53946	161.63277	245.64665	427.15280	162.90660	213.39491	217.18625	176.09181	-85.39211	406.82812	164.48602	-223.14919	426.36157	148.94792	-184.38124	218.69800	174.88762	320.30740	37.99371	135.19336	270.65915	40.37130	129.77132	255.01897	38.67080	272.23886	308.92200	72.90347	258.44339	-286.24518	48.83736	128.39728	-236.77667	41.58759	128.95265	-238.31779	42.05133	272.27716	-282.68301	85.34494	251.65875	6.13711	1306.06494	305.99548	11.71635	726.90649	46.74435	6.13711	1306.06494	305.99548	-62.22034	1474.31104	161.30560	77.62858	1468.08374	159.43518	6.70458	1469.76917	90.39211	-127.75913	1341.82520	189.44321	-253.94704	1376.02197	124.17841	-291.92792	1474.48315	113.69900	-279.18024	1430.56348	24.76895	-284.32956	1650.26611	-45.69266	-235.51605	1645.13159	-36.15971	-182.27472	1713.76794	-51.75632	139.94568	1340.86230	182.48953	255.50327	1376.30640	103.33025	291.17007	1475.17358	89.18250	267.72568	1431.95972	2.10249	257.18307	1652.54407	-64.92040	210.27115	1645.85010	-48.96851	163.84308	1723.31409	-58.93779	-27.94560	10.36656	-1.03882	-27.74864	8.10641	-8.30879	-21.08536	0.74504	0.23530	-23.00524	-2.42720	0.15304	-9.17595	5.97017	-13.25266	-10.83214	5.94333	0.25723	-33.56031	81.42902	-52.62832	29.70431	-73.46146	-50.57222	-43.58905	-73.46146	12.30138	-42.72615	-0.00000	12.30138	12.93303	18.36044	12.30138	7.42337	26.94766	-0.00000	-12.95065	-4.19722	-2.21929
70	1.38000	135.96236	804.12445	173.78151	-120.51588	806.41296	174.71510	-120.10935	826.02466	238.32234	136.36888	823.73615	237.38875	8.12976	824.88043	237.85555	-129.09901	463.83279	152.69475	152.07016	462.67462	154.82236	110.33394	400.62787	156.44659	248.07527	425.60913	158.25296	214.74440	215.97150	173.78073	-88.14697	405.30069	159.62685	-226.06114	424.10300	144.58830	-186.34132	216.94031	172.97781	320.41501	37.23516	134.90718	270.81259	40.19928	129.35605	254.75287	38.16491	271.77249	309.08176	71.82898	258.25107	-286.75421	47.00590	128.55341	-237.09103	41.22313	128.91426	-238.17517	40.85681	272.24326	-283.87119	82.92812	252.00450	4.95814	1302.89636	305.15945	11.49451	720.63684	52.97311	4.95814	1302.89636	305.15945	-62.60982	1469.69446	157.74876	77.21587	1462.76404	156.88400	6.78071	1464.42285	87.34166	-128.53755	1337.55579	185.77240	-254.16203	1371.51562	119.60958	-292.53363	1469.83838	109.25426	-278.03601	1426.69116	20.21422	-282.21652	1646.97375	-48.47891	-233.58336	1641.83167	-38.06865	-180.81497	1710.34900	-56.45764	138.74289	1336.57275	181.05438	255.32176	1370.75586	102.46052	291.36441	1469.34705	87.37145	268.68326	1425.04431	0.63723	257.56833	1644.80615	-68.94568	210.58495	1638.07532	-53.22136	163.43359	1714.55896	-65.39710	-30.33730	10.69005	-1.27980	-29.75550	8.67558	-8.43128	-23.67218	0.07742	-0.09959	-25.29245	-3.42897	0.15190	-10.05279	5.94341	-13.64804	-11.91002	5.96473	-1.10132	-33.24065	80.75203	-52.15696	29.45941	-75.24989	-51.09205	-44.00239	-75.24989	13.16398	-42.89692	-0.00000	13.16398	12.56612	18.56720	13.16398	5.66817	26.05419	-0.00000	-12.50276	-4.62237	-2.22937
71	1.40000	136.27629	797.54358	179.73674	-120.19661	800.46771	179.20415	-120.09689	820.76129	242.59834	136.37601	817.83722	243.13094	8.13956	819.29926	242.86464	-132.38829	462.14047	148.92404	154.13483	460.66458	151.27760	112.73196	399.08826	150.60889	250.56779	423.43280	153.54684	216.02736	214.22301	171.93756	-91.90090	404.60159	153.82999	-230.05531	422.18887	139.54541	-188.63762	215.78815	170.90344	320.57434	36.43159	135.97340	271.04901	39.96572	130.07832	253.92944	37.39738	272.36264	308.71930	70.53214	259.40555	-287.07755	45.27114	129.26123	-237.25476	41.06658	129.37186	-237.62015	40.50774	272.70383	-284.72696	81.13038	252.74191	6.61494	1298.74731	304.04691	11.38521	713.19000	59.57468	6.61494	1298.74731	304.04691	-62.85558	1462.80493	154.89978	77.01636	1457.06567	153.19583	6.17147	1458.56067	84.06721	-127.52571	1331.77454	183.56520	-253.46037	1364.48669	117.35802	-292.75415	1462.42102	106.78228	-277.33386	1419.41809	17.82744	-280.02307	1639.85779	-50.43481	-231.53284	1634.54321	-39.45982	-178.95679	1702.74597	-59.81614	140.06221	1330.08337	178.30531	255.43718	1363.30701	98.34020	291.77637	1461.65076	82.37288	267.38190	1417.24744	-3.84345	255.55092	1636.90894	-73.62525	208.84888	1630.33008	-57.02288	163.90430	1709.39197	-64.08595	-32.97416	11.19061	-1.64913	-32.09728	9.25155	-8.40870	-26.65990	-0.58177	-0.20552	-27.93896	-4.83834	-0.07796	-11.20211	5.93905	-14.01571	-12.90801	5.94674	-2.40693	-33.05773	81.72164	-52.48610	29.29192	-76.43821	-50.91155	-44.22371	-76.43821	12.80130	-43.65477	-0.00000	12.80130	15.45828	17.39741	12.80130	4.84815	25.45343	-0.00000	-11.34829	-4.17219	-2.59271
72	1.42000	135.86681	791.28839	185.22719	-120.59206	794.70728	183.14799	-120.82473	815.67352	246.32259	135.63412	812.25464	248.40178	7.40471	813.96405	247.36218	-133.72525	460.50882	144.72830	156.40778	459.25342	148.07097	115.50801	398.21011	145.06833	253.38606	422.07907	149.53027	217.80956	213.21832	169.81602	-93.14980	403.05090	146.89136	-231.53023	420.69110	135.07309	-189.87570	214.78064	169.21680	321.52786	35.80553	136.50620	272.10355	39.87213	130.12650	253.53943	37.17662	272.22723	308.79996	69.76222	259.89111	-288.49390	44.32007	131.98473	-238.60007	41.16066	131.19345	-236.33302	41.06910	274.50906	-284.63992	80.62955	255.29597	7.27617	1294.69958	302.47906	10.73391	705.99390	65.66580	7.27617	1294.69958	302.47906	-63.07981	1456.17456	151.10222	76.82019	1451.12244	149.53076	6.04396	1452.53845	80.33017	-127.16589	1326.05420	180.44475	-252.67361	1357.93103	113.44026	-292.61560	1455.57581	102.61869	-275.58313	1412.99353	13.75565	-277.22995	1633.74304	-53.53138	-228.93832	1628.41174	-41.72055	-176.58646	1697.09680	-61.51158	140.52986	1324.05457	175.60806	255.55881	1356.65588	95.55501	291.80206	1454.89880	78.76935	267.39484	1409.77698	-7.06957	252.77393	1628.92419	-77.93120	206.24274	1621.92749	-61.02278	160.79958	1700.64600	-63.44638	-35.47284	11.81144	-2.01665	-34.56906	9.31624	-7.92201	-29.30085	-1.34119	-0.25670	-30.95649	-5.15543	0.20543	-11.94079	5.89650	-14.42431	-13.73620	5.95355	-3.64880	-32.74138	81.75629	-52.74016	29.19371	-78.06023	-51.01962	-44.88792	-78.06023	12.76433	-44.10809	-0.00000	12.76433	18.41623	17.80340	12.76433	5.04836	24.98697	-0.00000	-10.34605	-3.95371	-2.83984
